<mxfile host="app.diagrams.net" modified="2024-07-04T09:35:42.665Z" agent="Mozilla/5.0 (Windows NT 10.0; Win64; x64) AppleWebKit/537.36 (KHTML, like Gecko) Chrome/126.0.0.0 Safari/537.36" etag="KkyFZkYNF0bHPI2eto6f" version="24.6.4" type="device">
  <diagram id="4WmufLzKiaE4o4lQjcCc" name="Σελίδα-1">
    <mxGraphModel dx="1147" dy="1131" grid="1" gridSize="10" guides="1" tooltips="1" connect="1" arrows="1" fold="1" page="1" pageScale="1" pageWidth="827" pageHeight="1169" math="0" shadow="0">
      <root>
        <mxCell id="0" />
        <mxCell id="1" parent="0" />
        <mxCell id="-jmbjGPi3-XhKLmTw2bE-2" value="&lt;b&gt;&lt;font style=&quot;font-size: 22px;&quot;&gt;CNN-Transformer Model Architecture&lt;/font&gt;&lt;/b&gt;" style="text;html=1;align=center;verticalAlign=middle;whiteSpace=wrap;rounded=0;" vertex="1" parent="1">
          <mxGeometry x="200" y="90" width="400" height="50" as="geometry" />
        </mxCell>
        <mxCell id="-jmbjGPi3-XhKLmTw2bE-44" value="" style="group" vertex="1" connectable="0" parent="1">
          <mxGeometry x="150" y="160" width="500" height="970" as="geometry" />
        </mxCell>
        <mxCell id="-jmbjGPi3-XhKLmTw2bE-1" value="&lt;font style=&quot;font-size: 13px;&quot;&gt;Dropout = 0.1&lt;/font&gt;" style="text;html=1;align=center;verticalAlign=middle;whiteSpace=wrap;rounded=0;fontStyle=1" vertex="1" parent="-jmbjGPi3-XhKLmTw2bE-44">
          <mxGeometry x="140" y="870" width="90" height="30" as="geometry" />
        </mxCell>
        <mxCell id="-jmbjGPi3-XhKLmTw2bE-3" value="" style="rounded=0;whiteSpace=wrap;html=1;fillColor=none;strokeColor=#ff0000;strokeWidth=2;" vertex="1" parent="-jmbjGPi3-XhKLmTw2bE-44">
          <mxGeometry y="240" width="320" height="540" as="geometry" />
        </mxCell>
        <mxCell id="-jmbjGPi3-XhKLmTw2bE-41" style="edgeStyle=orthogonalEdgeStyle;rounded=0;orthogonalLoop=1;jettySize=auto;html=1;strokeWidth=2;" edge="1" parent="-jmbjGPi3-XhKLmTw2bE-44" source="-jmbjGPi3-XhKLmTw2bE-6" target="-jmbjGPi3-XhKLmTw2bE-37">
          <mxGeometry relative="1" as="geometry" />
        </mxCell>
        <mxCell id="-jmbjGPi3-XhKLmTw2bE-6" value="&lt;font style=&quot;font-size: 19px;&quot;&gt;CNN 1D&lt;/font&gt;" style="rounded=1;whiteSpace=wrap;html=1;fillColor=#6afe62;strokeColor=#82b366;" vertex="1" parent="-jmbjGPi3-XhKLmTw2bE-44">
          <mxGeometry x="30" y="85" width="190" height="60" as="geometry" />
        </mxCell>
        <mxCell id="-jmbjGPi3-XhKLmTw2bE-7" style="edgeStyle=orthogonalEdgeStyle;rounded=0;orthogonalLoop=1;jettySize=auto;html=1;exitX=0.5;exitY=1;exitDx=0;exitDy=0;entryX=0.5;entryY=0;entryDx=0;entryDy=0;strokeWidth=2;" edge="1" parent="-jmbjGPi3-XhKLmTw2bE-44" source="-jmbjGPi3-XhKLmTw2bE-8" target="-jmbjGPi3-XhKLmTw2bE-6">
          <mxGeometry relative="1" as="geometry" />
        </mxCell>
        <mxCell id="-jmbjGPi3-XhKLmTw2bE-8" value="&lt;font style=&quot;font-size: 18px;&quot;&gt;Input Layer&lt;/font&gt;" style="rounded=1;whiteSpace=wrap;html=1;fillColor=#b0e3e6;strokeColor=#0e8088;" vertex="1" parent="-jmbjGPi3-XhKLmTw2bE-44">
          <mxGeometry x="30" width="190" height="60" as="geometry" />
        </mxCell>
        <mxCell id="-jmbjGPi3-XhKLmTw2bE-9" value="" style="edgeStyle=orthogonalEdgeStyle;rounded=0;orthogonalLoop=1;jettySize=auto;html=1;strokeWidth=2;" edge="1" parent="-jmbjGPi3-XhKLmTw2bE-44" source="-jmbjGPi3-XhKLmTw2bE-10" target="-jmbjGPi3-XhKLmTw2bE-13">
          <mxGeometry relative="1" as="geometry" />
        </mxCell>
        <mxCell id="-jmbjGPi3-XhKLmTw2bE-10" value="&lt;font style=&quot;font-size: 18px;&quot;&gt;Multi Head Attention&lt;/font&gt;" style="rounded=1;whiteSpace=wrap;html=1;fillColor=#fad7ac;strokeColor=#b46504;" vertex="1" parent="-jmbjGPi3-XhKLmTw2bE-44">
          <mxGeometry x="30" y="355" width="190" height="60" as="geometry" />
        </mxCell>
        <mxCell id="-jmbjGPi3-XhKLmTw2bE-11" style="edgeStyle=orthogonalEdgeStyle;rounded=0;orthogonalLoop=1;jettySize=auto;html=1;entryX=0.5;entryY=0;entryDx=0;entryDy=0;strokeWidth=2;" edge="1" parent="-jmbjGPi3-XhKLmTw2bE-44" source="-jmbjGPi3-XhKLmTw2bE-13" target="-jmbjGPi3-XhKLmTw2bE-19">
          <mxGeometry relative="1" as="geometry" />
        </mxCell>
        <mxCell id="-jmbjGPi3-XhKLmTw2bE-12" style="edgeStyle=orthogonalEdgeStyle;rounded=0;orthogonalLoop=1;jettySize=auto;html=1;entryX=0;entryY=0.5;entryDx=0;entryDy=0;strokeWidth=2;" edge="1" parent="-jmbjGPi3-XhKLmTw2bE-44" source="-jmbjGPi3-XhKLmTw2bE-13" target="-jmbjGPi3-XhKLmTw2bE-32">
          <mxGeometry relative="1" as="geometry">
            <Array as="points">
              <mxPoint x="10" y="480" />
              <mxPoint x="10" y="740" />
            </Array>
          </mxGeometry>
        </mxCell>
        <mxCell id="-jmbjGPi3-XhKLmTw2bE-13" value="&lt;span style=&quot;font-size: 18px;&quot;&gt;Add + Normalization&lt;/span&gt;" style="rounded=1;whiteSpace=wrap;html=1;fillColor=#e1d5e7;strokeColor=#9673a6;" vertex="1" parent="-jmbjGPi3-XhKLmTw2bE-44">
          <mxGeometry x="30" y="440" width="190" height="60" as="geometry" />
        </mxCell>
        <mxCell id="-jmbjGPi3-XhKLmTw2bE-14" value="&lt;font style=&quot;font-size: 15px;&quot;&gt;(1021, 1)&lt;/font&gt;" style="text;html=1;align=center;verticalAlign=middle;resizable=0;points=[];autosize=1;strokeColor=none;fillColor=none;strokeWidth=4;" vertex="1" parent="-jmbjGPi3-XhKLmTw2bE-44">
          <mxGeometry x="220" y="15" width="80" height="30" as="geometry" />
        </mxCell>
        <mxCell id="-jmbjGPi3-XhKLmTw2bE-15" value="&lt;font style=&quot;font-size: 15px;&quot;&gt;(1021, 500)&lt;/font&gt;" style="text;html=1;align=center;verticalAlign=middle;resizable=0;points=[];autosize=1;strokeColor=none;fillColor=none;strokeWidth=4;" vertex="1" parent="-jmbjGPi3-XhKLmTw2bE-44">
          <mxGeometry x="220" y="100" width="100" height="30" as="geometry" />
        </mxCell>
        <mxCell id="-jmbjGPi3-XhKLmTw2bE-16" value="&lt;font style=&quot;font-size: 15px;&quot;&gt;&lt;font style=&quot;font-size: 15px;&quot;&gt;(510&lt;span style=&quot;background-color: rgb(255, 255, 255); color: rgba(0, 0, 0, 0.87); font-family: var(--jp-code-font-family); text-align: left; text-wrap: wrap;&quot;&gt;,&amp;nbsp;&lt;/span&gt;&lt;/font&gt;&lt;span style=&quot;font-family: var(--jp-code-font-family); text-wrap: wrap; background-color: rgb(255, 255, 255); color: rgba(0, 0, 0, 0.87); text-align: left;&quot;&gt;500&lt;/span&gt;&lt;span style=&quot;background-color: initial;&quot;&gt;)&lt;/span&gt;&lt;/font&gt;" style="text;html=1;align=center;verticalAlign=middle;resizable=0;points=[];autosize=1;strokeColor=none;fillColor=none;strokeWidth=4;" vertex="1" parent="-jmbjGPi3-XhKLmTw2bE-44">
          <mxGeometry x="225" y="370" width="90" height="30" as="geometry" />
        </mxCell>
        <mxCell id="-jmbjGPi3-XhKLmTw2bE-17" value="&lt;font style=&quot;font-size: 15px;&quot;&gt;(510, 500)&lt;/font&gt;" style="text;html=1;align=center;verticalAlign=middle;resizable=0;points=[];autosize=1;strokeColor=none;fillColor=none;strokeWidth=4;" vertex="1" parent="-jmbjGPi3-XhKLmTw2bE-44">
          <mxGeometry x="225" y="455" width="90" height="30" as="geometry" />
        </mxCell>
        <mxCell id="-jmbjGPi3-XhKLmTw2bE-18" value="" style="edgeStyle=orthogonalEdgeStyle;rounded=0;orthogonalLoop=1;jettySize=auto;html=1;strokeWidth=2;" edge="1" parent="-jmbjGPi3-XhKLmTw2bE-44" source="-jmbjGPi3-XhKLmTw2bE-19" target="-jmbjGPi3-XhKLmTw2bE-21">
          <mxGeometry relative="1" as="geometry" />
        </mxCell>
        <mxCell id="-jmbjGPi3-XhKLmTw2bE-19" value="&lt;span style=&quot;font-size: 18px;&quot;&gt;Dense layer&lt;/span&gt;" style="rounded=1;whiteSpace=wrap;html=1;fillColor=#bed3b8;strokeColor=#23445d;" vertex="1" parent="-jmbjGPi3-XhKLmTw2bE-44">
          <mxGeometry x="30" y="530" width="190" height="60" as="geometry" />
        </mxCell>
        <mxCell id="-jmbjGPi3-XhKLmTw2bE-20" value="" style="edgeStyle=orthogonalEdgeStyle;rounded=0;orthogonalLoop=1;jettySize=auto;html=1;strokeWidth=2;" edge="1" parent="-jmbjGPi3-XhKLmTw2bE-44" source="-jmbjGPi3-XhKLmTw2bE-21" target="-jmbjGPi3-XhKLmTw2bE-32">
          <mxGeometry relative="1" as="geometry" />
        </mxCell>
        <mxCell id="-jmbjGPi3-XhKLmTw2bE-21" value="&lt;span style=&quot;font-size: 18px;&quot;&gt;Dense layer&lt;/span&gt;" style="rounded=1;whiteSpace=wrap;html=1;fillColor=#BED3B8;strokeColor=#23445d;" vertex="1" parent="-jmbjGPi3-XhKLmTw2bE-44">
          <mxGeometry x="30" y="620" width="190" height="60" as="geometry" />
        </mxCell>
        <mxCell id="-jmbjGPi3-XhKLmTw2bE-22" value="&lt;font style=&quot;font-size: 15px;&quot;&gt;(510, 500)&lt;/font&gt;" style="text;html=1;align=center;verticalAlign=middle;resizable=0;points=[];autosize=1;strokeColor=none;fillColor=none;strokeWidth=4;" vertex="1" parent="-jmbjGPi3-XhKLmTw2bE-44">
          <mxGeometry x="225" y="545" width="90" height="30" as="geometry" />
        </mxCell>
        <mxCell id="-jmbjGPi3-XhKLmTw2bE-23" value="&lt;font style=&quot;font-size: 18px;&quot;&gt;&lt;b&gt;Transformer Block&lt;/b&gt;&lt;/font&gt;" style="text;html=1;align=center;verticalAlign=middle;whiteSpace=wrap;rounded=0;" vertex="1" parent="-jmbjGPi3-XhKLmTw2bE-44">
          <mxGeometry x="320" y="495" width="180" height="30" as="geometry" />
        </mxCell>
        <mxCell id="-jmbjGPi3-XhKLmTw2bE-24" value="&lt;font style=&quot;font-size: 18px;&quot;&gt;&lt;b&gt;CNN Layer&lt;/b&gt;&lt;/font&gt;" style="text;html=1;align=center;verticalAlign=middle;whiteSpace=wrap;rounded=0;" vertex="1" parent="-jmbjGPi3-XhKLmTw2bE-44">
          <mxGeometry x="320" y="135" width="110" height="30" as="geometry" />
        </mxCell>
        <mxCell id="-jmbjGPi3-XhKLmTw2bE-25" value="&lt;font style=&quot;font-size: 18px;&quot;&gt;Output&lt;/font&gt;" style="rounded=1;whiteSpace=wrap;html=1;fillColor=#b1ddf0;strokeColor=#10739e;" vertex="1" parent="-jmbjGPi3-XhKLmTw2bE-44">
          <mxGeometry x="30" y="910" width="190" height="60" as="geometry" />
        </mxCell>
        <mxCell id="-jmbjGPi3-XhKLmTw2bE-26" value="&lt;font style=&quot;font-size: 15px;&quot;&gt;(510, 500)&lt;/font&gt;" style="text;html=1;align=center;verticalAlign=middle;resizable=0;points=[];autosize=1;strokeColor=none;fillColor=none;strokeWidth=4;" vertex="1" parent="-jmbjGPi3-XhKLmTw2bE-44">
          <mxGeometry x="225" y="635" width="90" height="30" as="geometry" />
        </mxCell>
        <mxCell id="-jmbjGPi3-XhKLmTw2bE-27" style="edgeStyle=orthogonalEdgeStyle;rounded=0;orthogonalLoop=1;jettySize=auto;html=1;entryX=0.5;entryY=0;entryDx=0;entryDy=0;strokeWidth=2;" edge="1" parent="-jmbjGPi3-XhKLmTw2bE-44" source="-jmbjGPi3-XhKLmTw2bE-29" target="-jmbjGPi3-XhKLmTw2bE-10">
          <mxGeometry relative="1" as="geometry" />
        </mxCell>
        <mxCell id="-jmbjGPi3-XhKLmTw2bE-28" style="edgeStyle=orthogonalEdgeStyle;rounded=0;orthogonalLoop=1;jettySize=auto;html=1;strokeWidth=2;" edge="1" parent="-jmbjGPi3-XhKLmTw2bE-44" source="-jmbjGPi3-XhKLmTw2bE-29" target="-jmbjGPi3-XhKLmTw2bE-13">
          <mxGeometry relative="1" as="geometry">
            <Array as="points">
              <mxPoint x="10" y="280" />
              <mxPoint x="10" y="460" />
            </Array>
          </mxGeometry>
        </mxCell>
        <mxCell id="-jmbjGPi3-XhKLmTw2bE-29" value="&lt;font style=&quot;font-size: 19px;&quot;&gt;Potisional Encoding&lt;/font&gt;" style="rounded=1;whiteSpace=wrap;html=1;fillColor=#ff9f94;strokeColor=#ae4132;" vertex="1" parent="-jmbjGPi3-XhKLmTw2bE-44">
          <mxGeometry x="30" y="250" width="190" height="60" as="geometry" />
        </mxCell>
        <mxCell id="-jmbjGPi3-XhKLmTw2bE-30" value="&lt;font style=&quot;font-size: 15px;&quot;&gt;(510, 500)&lt;/font&gt;" style="text;html=1;align=center;verticalAlign=middle;resizable=0;points=[];autosize=1;strokeColor=none;fillColor=none;strokeWidth=4;" vertex="1" parent="-jmbjGPi3-XhKLmTw2bE-44">
          <mxGeometry x="225" y="265" width="90" height="30" as="geometry" />
        </mxCell>
        <mxCell id="-jmbjGPi3-XhKLmTw2bE-31" style="edgeStyle=orthogonalEdgeStyle;rounded=0;orthogonalLoop=1;jettySize=auto;html=1;entryX=0.5;entryY=0;entryDx=0;entryDy=0;strokeWidth=2;" edge="1" parent="-jmbjGPi3-XhKLmTw2bE-44" source="-jmbjGPi3-XhKLmTw2bE-32" target="-jmbjGPi3-XhKLmTw2bE-35">
          <mxGeometry relative="1" as="geometry" />
        </mxCell>
        <mxCell id="-jmbjGPi3-XhKLmTw2bE-32" value="&lt;span style=&quot;font-size: 18px;&quot;&gt;Add + Normalization&lt;/span&gt;" style="rounded=1;whiteSpace=wrap;html=1;fillColor=#e1d5e7;strokeColor=#9673a6;" vertex="1" parent="-jmbjGPi3-XhKLmTw2bE-44">
          <mxGeometry x="30" y="710" width="190" height="60" as="geometry" />
        </mxCell>
        <mxCell id="-jmbjGPi3-XhKLmTw2bE-33" value="&lt;font style=&quot;font-size: 15px;&quot;&gt;(510, 500)&lt;/font&gt;" style="text;html=1;align=center;verticalAlign=middle;resizable=0;points=[];autosize=1;strokeColor=none;fillColor=none;strokeWidth=4;" vertex="1" parent="-jmbjGPi3-XhKLmTw2bE-44">
          <mxGeometry x="225" y="725" width="90" height="30" as="geometry" />
        </mxCell>
        <mxCell id="-jmbjGPi3-XhKLmTw2bE-34" value="" style="edgeStyle=orthogonalEdgeStyle;rounded=0;orthogonalLoop=1;jettySize=auto;html=1;strokeWidth=2;" edge="1" parent="-jmbjGPi3-XhKLmTw2bE-44" source="-jmbjGPi3-XhKLmTw2bE-35" target="-jmbjGPi3-XhKLmTw2bE-25">
          <mxGeometry relative="1" as="geometry" />
        </mxCell>
        <mxCell id="-jmbjGPi3-XhKLmTw2bE-35" value="&lt;span style=&quot;font-size: 18px;&quot;&gt;GlobalAVGPooling&lt;/span&gt;" style="rounded=1;whiteSpace=wrap;html=1;fillColor=#7cb2fe;strokeColor=#247fff;" vertex="1" parent="-jmbjGPi3-XhKLmTw2bE-44">
          <mxGeometry x="30" y="800" width="190" height="60" as="geometry" />
        </mxCell>
        <mxCell id="-jmbjGPi3-XhKLmTw2bE-36" value="&lt;font style=&quot;font-size: 15px;&quot;&gt;(500)&lt;/font&gt;" style="text;html=1;align=center;verticalAlign=middle;resizable=0;points=[];autosize=1;strokeColor=none;fillColor=none;strokeWidth=4;" vertex="1" parent="-jmbjGPi3-XhKLmTw2bE-44">
          <mxGeometry x="220" y="815" width="60" height="30" as="geometry" />
        </mxCell>
        <mxCell id="-jmbjGPi3-XhKLmTw2bE-42" value="" style="edgeStyle=orthogonalEdgeStyle;rounded=0;orthogonalLoop=1;jettySize=auto;html=1;strokeWidth=2;" edge="1" parent="-jmbjGPi3-XhKLmTw2bE-44" source="-jmbjGPi3-XhKLmTw2bE-37" target="-jmbjGPi3-XhKLmTw2bE-29">
          <mxGeometry relative="1" as="geometry" />
        </mxCell>
        <mxCell id="-jmbjGPi3-XhKLmTw2bE-37" value="&lt;font style=&quot;font-size: 19px;&quot;&gt;Max Pooling&lt;/font&gt;" style="rounded=1;whiteSpace=wrap;html=1;fillColor=#e51400;strokeColor=#B20000;fontColor=#ffffff;" vertex="1" parent="-jmbjGPi3-XhKLmTw2bE-44">
          <mxGeometry x="30" y="160" width="190" height="60" as="geometry" />
        </mxCell>
        <mxCell id="-jmbjGPi3-XhKLmTw2bE-38" value="&lt;font style=&quot;font-size: 15px;&quot;&gt;(510, 500)&lt;/font&gt;" style="text;html=1;align=center;verticalAlign=middle;resizable=0;points=[];autosize=1;strokeColor=none;fillColor=none;strokeWidth=4;" vertex="1" parent="-jmbjGPi3-XhKLmTw2bE-44">
          <mxGeometry x="225" y="175" width="90" height="30" as="geometry" />
        </mxCell>
        <mxCell id="-jmbjGPi3-XhKLmTw2bE-43" value="" style="rounded=0;whiteSpace=wrap;html=1;fillColor=none;strokeColor=#ff0000;strokeWidth=2;" vertex="1" parent="-jmbjGPi3-XhKLmTw2bE-44">
          <mxGeometry y="70" width="320" height="160" as="geometry" />
        </mxCell>
      </root>
    </mxGraphModel>
  </diagram>
</mxfile>
